<svg width="113.99999999999999" height="28.999999999999996" xmlns="http://www.w3.org/2000/svg">
 <title>Logotype</title>
 <defs>
  <filter id="svg_7_blur">
   <feGaussianBlur stdDeviation="0" in="SourceGraphic"/>
  </filter>
 </defs>
 <g>
  <title>background</title>
  <rect fill="none" id="canvas_background" height="602" width="802" y="-1" x="-1"/>
 </g>
 <g>
  <title>Layer 1</title>
  <path stroke="null" id="svg_1" fill-rule="evenodd" fill="#ff0c00" d="m31.82972,1.45271l0,11.51716l6.16429,0l0,1.98699l-9.44679,0l0,-13.50415l3.2825,0zm17.75061,5.72959l0,-1.21538l3.11098,0l0,8.99044l-3.11024,0l0,-1.21588c-0.41918,0.45027 -1.01284,0.80409 -1.78393,1.06096c-0.77035,0.25737 -1.54588,0.3858 -2.32584,0.3858c-1.00915,0 -1.93179,-0.12494 -2.76868,-0.37581a6.4748,4.37678 0 0 1 -2.15506,-1.03248a7.09729,4.79757 0 0 1 -1.39728,-1.50424a7.18379,4.85604 0 0 1 -0.50051,-1.81408c0,-0.62968 0.16634,-1.23138 0.49977,-1.80408a7.06772,4.77758 0 0 1 1.39802,-1.51423a6.48071,4.38078 0 0 1 2.15506,-1.03198c0.83689,-0.25087 1.75954,-0.37581 2.76868,-0.37581c0.77996,0 1.55549,0.12843 2.32584,0.3858c0.77035,0.25737 1.36475,0.61069 1.78393,1.06096l-0.00074,0zm-0.28537,4.37928a4.65242,3.1449 0 0 0 0.28611,-1.09944c0,-0.3863 -0.09611,-0.75262 -0.28611,-1.09944a4.1253,2.78858 0 0 0 -0.79844,-0.90704a3.86876,2.61517 0 0 0 -1.24203,-0.61769c-0.48498,-0.15392 -1.02245,-0.23138 -1.61168,-0.23138c-0.5907,0 -1.12374,0.07746 -1.59911,0.23138a3.9109,2.64366 0 0 0 -1.22724,0.61769a3.92347,2.65215 0 0 0 -0.78366,0.90654a4.84981,3.27834 0 0 0 -0.27206,1.09944c0,0.3858 0.09019,0.75262 0.27132,1.09944c0.18039,0.34782 0.4421,0.64967 0.78514,0.90704a3.90277,2.63816 0 0 0 1.22724,0.61769c0.47463,0.15442 1.00767,0.23138 1.59763,0.23138s1.12743,-0.07696 1.61242,-0.23138a3.86063,2.60968 0 0 0 1.24203,-0.61769a4.1216,2.78609 0 0 0 0.79844,-0.90654zm5.85083,3.39528l0,-8.98994l8.44799,0l0,2.06945l-5.33775,0l0,6.92149l-3.11024,0l0,-0.001zm19.72085,-7.77455l0,-1.21538l3.11098,0l0,8.99044l-3.11098,0l0,-1.21588c-0.41844,0.45027 -1.01284,0.80409 -1.78393,1.06096c-0.77035,0.25737 -1.54514,0.3858 -2.32584,0.3858c-1.00841,0 -1.93105,-0.12494 -2.76794,-0.37581a6.4748,4.37678 0 0 1 -2.15506,-1.03248a7.09729,4.79757 0 0 1 -1.39802,-1.50424a7.18379,4.85604 0 0 1 -0.49977,-1.81408c0,-0.62968 0.16634,-1.23138 0.49977,-1.80408a7.06772,4.77758 0 0 1 1.39728,-1.51423a6.48071,4.38078 0 0 1 2.1558,-1.03198c0.83689,-0.25087 1.75954,-0.37581 2.76794,-0.37581c0.77996,0 1.55549,0.12843 2.32584,0.3858c0.77109,0.25737 1.36549,0.61069 1.78393,1.06096zm-0.28537,4.37928a4.65242,3.1449 0 0 0 0.28537,-1.09944c0,-0.3863 -0.09611,-0.75262 -0.28537,-1.09944a4.1253,2.78858 0 0 0 -0.79844,-0.90704a3.86876,2.61517 0 0 0 -1.24203,-0.61769c-0.48498,-0.15392 -1.02319,-0.23138 -1.61242,-0.23138c-0.58996,0 -1.123,0.07746 -1.59837,0.23138a3.9109,2.64366 0 0 0 -1.22724,0.61769a3.92347,2.65215 0 0 0 -0.7844,0.90654a4.84981,3.27834 0 0 0 -0.27132,1.09944c0,0.3858 0.08946,0.75262 0.27132,1.09944c0.18039,0.34782 0.4421,0.64967 0.7844,0.90704a3.90277,2.63816 0 0 0 1.22724,0.61769c0.47537,0.15442 1.00841,0.23138 1.59837,0.23138c0.58922,0 1.12743,-0.07696 1.61242,-0.23138a3.86063,2.60968 0 0 0 1.24203,-0.61769a4.1216,2.78609 0 0 0 0.79844,-0.90654zm15.86761,-5.59466l3.1509,0l-5.10487,8.99044l-3.9109,0l-5.10561,-8.99044l3.1509,0l3.91016,6.88451l3.90942,-6.88451zm9.9362,-0.23138c4.23545,0 7.1239,2.53771 6.58126,5.50771l-10.3199,0c0,0.77561 1.15848,2.27485 3.90942,2.27485c2.36576,0 3.95156,-1.40679 3.9523,-1.40779l2.10183,1.09944c-1.8793,1.35581 -3.41779,1.979 -5.82717,1.979c-4.30495,0 -7.22297,-1.84107 -7.22297,-4.7266c0,-2.61018 3.01561,-4.7266 6.82449,-4.7266l0.00074,0zm-3.73051,3.945l7.45511,0c-0.02292,-0.17291 -0.42732,-2.27485 -3.74973,-2.27485c-3.32316,0 -3.68172,2.10193 -3.70538,2.27485zm12.33745,5.27632l0,-13.50415l3.11098,0l0,13.50415l-3.11098,0z"/>
  <g stroke="null" id="svg_6">
   <path stroke="null" id="svg_5" fill-rule="evenodd" fill="#ff0c00" d="m27.10575,7.41661a0.42288,0.42288 0 0 1 0.01464,0.10925l0,5.73523a0.41817,0.41817 0 0 1 -0.21013,0.36276l-4.81368,2.77143l0,5.49321c0,0.1495 -0.07945,0.28749 -0.20909,0.36276l-10.04815,5.78436c-0.023,0.01307 -0.04809,0.02143 -0.07318,0.03032c-0.00941,0.00314 -0.0183,0.00889 -0.02823,0.0115a0.42079,0.42079 0 0 1 -0.21431,0c-0.0115,-0.00314 -0.02195,-0.00941 -0.03293,-0.01359c-0.023,-0.00836 -0.04704,-0.01568 -0.069,-0.02823l-10.04606,-5.78436a0.41869,0.41869 0 0 1 -0.21013,-0.36276l0,-17.20568c0,-0.03764 0.00523,-0.07423 0.01464,-0.10977c0.00314,-0.01202 0.01045,-0.023 0.01464,-0.03502c0.00784,-0.02195 0.01516,-0.04443 0.02666,-0.06482c0.00784,-0.01359 0.01934,-0.02457 0.02875,-0.03711c0.01202,-0.01673 0.023,-0.03398 0.03711,-0.04861c0.01202,-0.01202 0.0277,-0.02091 0.04129,-0.03136c0.01516,-0.01255 0.02875,-0.02614 0.046,-0.03607l0.00052,0l5.02329,-2.89218a0.41922,0.41922 0 0 1 0.41817,0l5.02329,2.89218l0.00105,0c0.01673,0.01045 0.03084,0.02352 0.046,0.03554c0.01359,0.01045 0.02875,0.01986 0.04077,0.03136c0.01464,0.01516 0.02509,0.03241 0.03764,0.04914c0.00889,0.01255 0.02091,0.02352 0.02823,0.03711c0.01202,0.02091 0.01882,0.04286 0.02718,0.06482c0.00418,0.01202 0.0115,0.023 0.01464,0.03554a0.42288,0.42288 0 0 1 0.01464,0.10925l0,10.7465l4.1859,-2.41024l0,-5.49373c0,-0.03659 0.00523,-0.0737 0.01464,-0.10872c0.00366,-0.01255 0.01045,-0.02352 0.01464,-0.03554c0.00836,-0.02195 0.01568,-0.04443 0.02718,-0.06482c0.00784,-0.01359 0.01934,-0.02457 0.02823,-0.03711c0.01255,-0.01673 0.023,-0.03398 0.03764,-0.04861c0.01202,-0.01202 0.02718,-0.02091 0.04077,-0.03136c0.01568,-0.01255 0.02927,-0.02614 0.046,-0.03607l0.00052,0l5.02381,-2.89218a0.41869,0.41869 0 0 1 0.41817,0l5.02329,2.89218c0.01777,0.01045 0.03136,0.02352 0.04704,0.03554c0.01307,0.01045 0.02823,0.01986 0.04025,0.03136c0.01464,0.01516 0.02509,0.03241 0.03764,0.04914c0.00941,0.01255 0.02091,0.02352 0.02823,0.03711c0.01202,0.02039 0.01882,0.04286 0.02718,0.06482c0.0047,0.01202 0.0115,0.023 0.01464,0.03554zm-0.82275,5.60246l0,-4.76925l-1.75789,1.01198l-2.42853,1.39826l0,4.76925l4.18695,-2.41024l-0.00052,0zm-5.02329,8.62741l0,-4.77239l-2.38881,1.36429l-6.82143,3.89318l0,4.81734l9.21024,-5.30242zm-19.25682,-16.23971l0,16.23971l9.20919,5.3019l0,-4.81629l-4.81107,-2.72282l-0.00157,-0.00105l-0.00209,-0.00105c-0.0162,-0.00941 -0.02979,-0.023 -0.04495,-0.0345c-0.01307,-0.01045 -0.02823,-0.01882 -0.03973,-0.03032l-0.00105,-0.00157c-0.01359,-0.01307 -0.023,-0.02927 -0.0345,-0.04391c-0.01045,-0.01411 -0.023,-0.02614 -0.03136,-0.04077l-0.00052,-0.00157c-0.00941,-0.01568 -0.01516,-0.0345 -0.02195,-0.05227c-0.0068,-0.01568 -0.01568,-0.03032 -0.01986,-0.04704l0,-0.00052c-0.00523,-0.01986 -0.00627,-0.04077 -0.00836,-0.06116c-0.00209,-0.01568 -0.00627,-0.03136 -0.00627,-0.04704l0,-0.00105l0,-11.22844l-2.42801,-1.39879l-1.75789,-1.01093l0,-0.00052zm4.60512,-3.13315l-4.18538,2.40919l4.18433,2.40919l4.18486,-2.40972l-4.18486,-2.40867l0.00105,0zm2.17658,15.03537l2.42801,-1.39774l0,-10.50448l-1.75789,1.01198l-2.42853,1.39826l0,10.50448l1.75841,-1.0125zm12.89381,-12.19232l-4.18486,2.40919l4.18486,2.40919l4.18433,-2.40972l-4.18433,-2.40867zm-0.41869,5.54339l-2.42853,-1.39826l-1.75789,-1.01198l0,4.76925l2.42801,1.39774l1.75841,1.0125l0,-4.76925zm-9.62945,10.74754l6.13824,-3.50428l3.06834,-1.75109l-4.18172,-2.40762l-4.81473,2.77196l-4.38819,2.52628l4.17806,2.36476z"/>
  </g>
  <text font-weight="bold" filter="url(#svg_7_blur)" stroke="null" transform="matrix(3.1045921020200784,0,0,1.356772024506654,-75.6908581273907,-3.186579926533498) " xml:space="preserve" text-anchor="start" font-family="'Trebuchet MS', Gadget, sans-serif" font-size="8" id="svg_7" y="20.63225" x="38.33186" stroke-opacity="null" stroke-width="0" fill="#ff0000">blog</text>
 </g>
</svg>